<?xml version="1.0" standalone="no"?>
<!DOCTYPE svg PUBLIC "-//W3C//DTD SVG 20010904//EN"
 "http://www.w3.org/TR/2001/REC-SVG-20010904/DTD/svg10.dtd">
<svg version="1.0" xmlns="http://www.w3.org/2000/svg"
 width="1500.000000pt" height="1500.000000pt" viewBox="0 0 1500.000000 1500.000000"
 preserveAspectRatio="xMidYMid meet">

<g transform="translate(0.000000,1500.000000) scale(0.100000,-0.100000)"
fill="#000000" stroke="none">
<path d="M7330 10035 c-367 -82 -645 -339 -756 -700 -26 -84 -28 -102 -28
-270 0 -213 14 -278 94 -441 167 -343 505 -554 885 -554 289 0 533 104 731
311 370 390 356 1015 -33 1390 -128 124 -232 186 -413 244 -76 25 -102 28
-250 31 -118 3 -183 -1 -230 -11z m442 -70 c181 -46 367 -169 489 -322 65 -82
147 -243 173 -338 39 -149 40 -333 1 -486 -17 -68 -111 -272 -123 -267 -4 2
-38 19 -77 39 -38 20 -104 51 -145 69 -41 18 -115 52 -164 76 -84 42 -93 44
-175 44 -92 0 -149 18 -184 58 -10 11 -34 60 -52 109 -57 152 -79 194 -176
338 -80 118 -274 394 -324 459 -13 18 -15 18 -43 -3 -57 -40 -146 -146 -176
-211 -46 -98 -44 -172 11 -310 77 -194 109 -367 120 -638 l6 -163 36 3 36 3
-4 104 c-4 136 9 525 19 541 4 7 27 16 51 20 56 11 69 0 121 -104 47 -94 85
-195 128 -342 40 -136 92 -237 134 -263 94 -57 352 -52 706 14 l35 7 -40 -36
c-101 -91 -239 -167 -377 -207 -115 -33 -326 -38 -449 -10 -338 77 -603 327
-699 661 -27 94 -39 318 -21 413 79 418 426 734 840 765 105 8 239 -1 323 -23z"/>
<path d="M7690 6801 l0 -561 54 0 55 0 3 203 c3 189 4 205 27 251 34 70 95
106 176 106 40 0 69 -6 84 -16 45 -32 51 -66 51 -314 l0 -230 56 0 56 0 -4
248 -3 247 -30 54 c-75 135 -247 160 -365 54 l-50 -45 -2 279 -3 278 -52 3
-53 3 0 -560z"/>
<path d="M7050 7257 c-153 -35 -240 -131 -240 -264 0 -72 25 -127 75 -172 51
-44 112 -70 267 -114 215 -61 278 -106 278 -197 0 -63 -10 -88 -51 -128 -48
-47 -119 -65 -238 -60 -73 3 -106 9 -138 26 -44 23 -88 73 -95 107 -3 17 -12
20 -66 23 -34 2 -62 1 -62 -2 0 -31 48 -119 82 -153 54 -51 92 -71 176 -89
222 -47 435 33 486 183 21 62 20 148 -3 198 -38 85 -117 131 -326 190 -146 41
-212 71 -249 115 -22 26 -26 41 -26 92 0 58 2 62 43 103 32 33 54 45 95 54
139 29 281 -14 313 -96 7 -20 16 -23 64 -23 54 0 56 1 49 23 -22 73 -84 134
-167 166 -71 26 -194 35 -267 18z"/>
<path d="M4610 6746 l0 -506 158 0 c181 0 261 14 353 60 331 167 364 648 59
855 -113 77 -156 88 -377 93 l-193 4 0 -506z m350 394 c127 -24 241 -111 294
-224 80 -169 21 -395 -129 -494 -84 -56 -147 -73 -287 -79 l-128 -6 0 406 0
407 99 0 c54 0 122 -5 151 -10z"/>
<path d="M5773 6891 c-23 -11 -52 -35 -66 -56 l-26 -38 -3 49 -3 49 -50 0 -50
0 -3 -327 -2 -328 55 0 55 0 0 191 c0 222 7 255 66 316 34 36 47 43 80 43 22
0 50 -7 62 -16 l22 -15 0 69 c0 64 -2 70 -22 76 -39 10 -71 6 -115 -13z"/>
<path d="M8623 6889 c-75 -29 -154 -105 -187 -179 -38 -84 -39 -195 -3 -274
34 -73 97 -140 166 -173 49 -24 68 -28 146 -28 78 0 97 4 146 28 67 32 142
109 172 175 33 72 31 198 -4 272 -32 67 -97 133 -164 168 -70 36 -197 41 -272
11z m242 -113 c79 -47 117 -113 117 -207 0 -67 -20 -113 -69 -162 -48 -49 -95
-69 -162 -69 -75 -1 -133 25 -181 79 -62 71 -78 168 -41 248 21 48 96 117 143
133 53 18 142 8 193 -22z"/>
<path d="M9443 6889 c-75 -29 -154 -105 -187 -179 -23 -50 -28 -75 -28 -142 0
-70 5 -89 31 -143 92 -186 330 -251 499 -137 23 15 61 52 83 82 l41 55 -59 3
c-54 3 -63 0 -91 -26 -94 -88 -238 -87 -330 1 -39 37 -62 77 -62 107 0 20 4
20 286 20 l287 0 -6 69 c-10 120 -79 221 -189 277 -73 38 -198 44 -275 13z
m198 -93 c57 -20 106 -64 134 -119 l26 -52 -227 -3 c-125 -1 -229 0 -232 3
-10 10 31 84 68 120 62 60 151 80 231 51z"/>
<path d="M10172 6895 c-95 -30 -150 -107 -140 -199 9 -81 66 -126 213 -166
163 -45 203 -87 160 -169 -18 -35 -60 -51 -134 -51 -69 0 -116 26 -137 75 -14
34 -16 35 -70 35 -60 0 -59 2 -34 -66 14 -35 61 -84 104 -107 58 -30 210 -30
276 0 75 34 120 102 120 178 0 91 -52 143 -178 180 -138 41 -170 55 -192 82
-49 62 -1 133 91 133 68 0 113 -20 128 -59 13 -29 16 -31 67 -31 62 0 66 8 34
69 -25 50 -60 77 -123 96 -61 18 -127 18 -185 0z"/>
<path d="M6065 6365 c-33 -32 -34 -83 -2 -113 33 -31 90 -30 122 3 52 51 15
135 -60 135 -25 0 -44 -8 -60 -25z"/>
</g>
</svg>
