<?xml version="1.0" standalone="no"?>
<!DOCTYPE svg PUBLIC "-//W3C//DTD SVG 20010904//EN"
 "http://www.w3.org/TR/2001/REC-SVG-20010904/DTD/svg10.dtd">
<svg version="1.0" xmlns="http://www.w3.org/2000/svg"
 width="500.000000pt" height="500.000000pt" viewBox="0 0 500.000000 500.000000"
 preserveAspectRatio="xMidYMid meet">

<g transform="translate(0.000000,500.000000) scale(0.100000,-0.100000)"
fill="#000000" stroke="none">
<path d="M2440 3634 c-361 -53 -640 -257 -790 -577 -66 -142 -85 -228 -85
-407 0 -185 20 -280 90 -428 59 -124 115 -201 218 -298 336 -317 836 -361
1223 -109 225 146 378 375 435 650 16 76 16 282 0 360 -86 418 -401 728 -815
800 -81 14 -212 18 -276 9z m345 -83 c165 -43 316 -133 441 -262 117 -122 192
-258 235 -424 32 -126 32 -314 1 -437 -18 -72 -71 -210 -87 -226 -2 -2 -19 7
-37 21 -41 31 -107 64 -221 111 -49 20 -120 53 -159 73 -64 34 -79 38 -176 43
-161 10 -193 33 -248 180 -19 50 -50 123 -69 162 -34 68 -221 346 -359 533
-36 49 -66 93 -66 97 0 14 130 80 215 109 47 16 114 33 148 38 96 15 289 6
382 -18z m-1012 -468 c-1 -51 3 -88 14 -112 101 -234 139 -412 152 -726 l6
-150 39 -3 38 -3 -6 143 c-7 169 6 504 22 520 17 17 75 25 100 14 33 -14 121
-198 172 -360 120 -379 125 -384 377 -393 161 -6 428 27 592 73 21 6 22 5 13
-13 -6 -10 -41 -51 -79 -89 -126 -128 -289 -217 -473 -256 -122 -26 -305 -21
-423 10 -323 87 -574 336 -667 663 -31 107 -38 307 -16 418 21 101 55 194 102
278 19 35 36 63 37 63 1 0 1 -34 0 -77z"/>
</g>
</svg>
